<svg width="24" height="24" viewBox="0 0 24 24" fill="none" xmlns="http://www.w3.org/2000/svg">
<g clip-path="url(#clip0_40_586)">
<path d="M12.324 7.021L12.478 7.366C12.715 7.325 12.998 7.311 13.325 7.341L13.458 7.918C13.201 7.886 12.928 7.856 12.687 7.906L12.595 7.929C12.131 8.052 12.279 8.494 12.693 8.601C13.375 8.759 14.187 8.809 14.508 9.523C14.766 10.101 14.467 10.496 13.967 10.686L14.121 11.032L13.796 11.1L13.649 10.771C13.311 10.832 12.924 10.824 12.569 10.73L12.469 10.146C12.763 10.192 13.127 10.233 13.407 10.176L13.593 10.116C13.926 9.951 13.824 9.534 13.329 9.435C12.962 9.352 11.987 9.414 11.624 8.604C11.419 8.146 11.571 7.668 12.159 7.45L11.998 7.089L12.324 7.021ZM16.144 8.635C15.438 6.987 13.463 5.884 11.735 6.172C10.007 6.46 9.17799 8.029 9.88499 9.678C10.631 11.417 12.773 12.531 14.536 12.092C16.098 11.704 16.816 10.205 16.144 8.635ZM16.374 1.386L20.14 9.619C14.707 13.842 7.48599 9.581 2.18899 14.08L-1.57701 5.847C3.36699 1.068 10.196 5.397 16.374 1.386ZM20.18 13.4C13.323 17.339 7.78099 11.976 0.679993 19.386L-3.82001 9.422L-2.41801 7.96L1.38899 16.361L1.38699 16.369C8.83199 10.777 12.582 15.194 19.496 11.808C19.79 12.455 20.061 13.138 20.18 13.4Z" fill="black"/>
</g>
<defs>
<clipPath id="clip0_40_586">
<rect width="24" height="24" fill="white"/>
</clipPath>
</defs>
</svg>
