<svg width="24" height="24" viewBox="0 0 24 24" fill="none" xmlns="http://www.w3.org/2000/svg">
<path fill-rule="evenodd" clip-rule="evenodd" d="M12 10.7874L18.536 4.25029C18.7029 4.08343 18.9234 4 19.1429 4C19.6046 4 20 4.37029 20 4.856C20 5.07657 19.9166 5.296 19.7497 5.464L13.2126 12L19.7486 18.536C19.9166 18.704 20 18.9234 20 19.1429C20 19.6309 19.6011 20 19.1429 20C18.9234 20 18.7029 19.9166 18.536 19.7497L12 13.2137L5.464 19.7497C5.29714 19.9166 5.07657 20 4.85714 20C4.39886 20 4 19.6309 4 19.1429C4 18.9234 4.08343 18.704 4.25143 18.536L10.7874 12L4.25029 5.464C4.08343 5.296 4 5.07657 4 4.856C4 4.37029 4.39543 4 4.85714 4C5.07657 4 5.29714 4.08343 5.464 4.25029L12 10.7874Z" fill="white"/>
</svg>
