<svg width="24" height="24" viewBox="0 0 24 24" fill="none" xmlns="http://www.w3.org/2000/svg">
<path fill-rule="evenodd" clip-rule="evenodd" d="M12 24C18.6274 24 24 18.6274 24 12C24 5.37258 18.6274 0 12 0C5.37258 0 0 5.37258 0 12C0 18.6274 5.37258 24 12 24ZM11.46 18.88C11.5933 19.0267 11.7933 19.1 12.06 19.1C12.3267 19.1 12.5267 19.0267 12.66 18.88C12.8067 18.72 12.88 18.5 12.88 18.22V10.04C12.88 9.76001 12.8067 9.54667 12.66 9.40001C12.5133 9.25334 12.3133 9.18001 12.06 9.18001C11.7933 9.18001 11.5933 9.25334 11.46 9.40001C11.3267 9.54667 11.26 9.76001 11.26 10.04V18.22C11.26 18.5 11.3267 18.72 11.46 18.88ZM11.28 6.68001C11.4667 6.85334 11.7267 6.94001 12.06 6.94001C12.4067 6.94001 12.6667 6.85334 12.84 6.68001C13.0267 6.49334 13.12 6.24667 13.12 5.94001C13.12 5.62001 13.0267 5.38001 12.84 5.22001C12.6667 5.04667 12.4067 4.96001 12.06 4.96001C11.7267 4.96001 11.4667 5.04667 11.28 5.22001C11.0933 5.38001 11 5.62001 11 5.94001C11 6.24667 11.0933 6.49334 11.28 6.68001Z" fill="#D9D9D9"/>
</svg>
