<svg width="24" height="24" viewBox="0 0 24 24" fill="none" xmlns="http://www.w3.org/2000/svg">
<mask id="mask0_60_938" style="mask-type:alpha" maskUnits="userSpaceOnUse" x="0" y="0" width="24" height="24">
<circle cx="12" cy="12" r="12" fill="#D9D9D9"/>
</mask>
<g mask="url(#mask0_60_938)">
<path fill-rule="evenodd" clip-rule="evenodd" d="M12 24C18.6274 24 24 18.6274 24 12C24 5.37258 18.6274 0 12 0C5.37258 0 0 5.37258 0 12C0 18.6274 5.37258 24 12 24ZM20 20V5.33333H18V6C18 6.73533 17.402 7.33333 16.6667 7.33333C15.9313 7.33333 15.3333 6.73533 15.3333 6V5.33333H8.66667V6C8.66667 6.73533 8.06867 7.33333 7.33333 7.33333C6.598 7.33333 6 6.73533 6 6V5.33333H4V20H20ZM5.33333 9.33333H18.6667V18.6667H5.33333V9.33333ZM16.6667 4C17.0353 4 17.3333 4.29867 17.3333 4.66667V6C17.3333 6.368 17.0353 6.66667 16.6667 6.66667C16.298 6.66667 16 6.368 16 6V4.66667C16 4.29867 16.298 4 16.6667 4ZM7.33333 6.66667C7.702 6.66667 8 6.368 8 6V4.66667C8 4.29867 7.702 4 7.33333 4C6.96467 4 6.66667 4.29867 6.66667 4.66667V6C6.66667 6.368 6.96467 6.66667 7.33333 6.66667ZM11.7187 13.858C12.1793 14.0353 12.458 14.4533 12.458 14.988C12.458 16.038 11.5907 16.6667 10.562 16.6667C9.41 16.6667 8.646 16.0013 8.66733 14.74H9.75667C9.776 15.2987 10.0007 15.708 10.5487 15.708C10.9107 15.708 11.276 15.492 11.276 15.0093C11.276 14.3973 10.8513 14.3527 10.14 14.3527V13.4993C10.6407 13.5427 11.1847 13.4707 11.1847 12.968C11.1847 12.57 10.862 12.3887 10.5627 12.3887C10.06 12.3887 9.87 12.758 9.87933 13.2653H8.78267C8.828 12.04 9.57067 11.4233 10.5553 11.4233C11.4013 11.4233 12.276 11.9587 12.276 12.856C12.276 13.32 12.0707 13.682 11.7187 13.858ZM15.3333 11.5213V16.6667H14.1927V13.3913H12.958V12.494C13.742 12.5153 14.29 12.2907 14.4053 11.5213H15.3333Z" fill="#D9D9D9"/>
</g>
</svg>
