<svg width="24" height="24" viewBox="0 0 24 24" fill="none" xmlns="http://www.w3.org/2000/svg">
<path d="M13.723 18.654L10.113 22.263C7.797 24.578 4.05 24.578 1.735 22.263C0.615 21.145 0 19.657 0 18.075C0 16.493 0.615 15.005 1.734 13.886L6.6 9.021C8.955 6.666 12.714 6.759 14.977 9.021C15.43 9.474 15.787 9.994 16.066 10.548L14.473 12.14C14.293 11.527 13.973 10.951 13.509 10.488C12.061 9.04 9.579 8.978 8.07 10.487L8.069 10.489L3.202 15.354C1.702 16.853 1.702 19.295 3.202 20.794C4.719 22.311 7.16 22.282 8.644 20.794L11.069 18.37C12.062 18.654 12.86 18.705 13.723 18.654ZM13.884 1.736L10.31 5.312C11.157 5.262 11.965 5.312 12.963 5.595L15.356 3.206C16.854 1.704 19.296 1.706 20.796 3.205C22.313 4.723 22.282 7.164 20.796 8.647L15.965 13.478L15.962 13.48C14.524 14.917 12.076 15.032 10.523 13.478C10.05 13.004 9.738 12.436 9.567 11.835L9.483 11.903L7.966 13.418C8.246 13.974 8.601 14.493 9.054 14.946C11.299 17.191 15.058 17.32 17.432 14.946L22.264 10.115C24.578 7.799 24.58 4.053 22.263 1.738C19.946 -0.582999 16.196 -0.574999 13.884 1.736Z" fill="white"/>
</svg>
