<svg width="24" height="24" viewBox="0 0 24 24" fill="none" xmlns="http://www.w3.org/2000/svg">
<path d="M1.275 12.3646L9.272 19.7829C9.4293 19.928 9.6251 20 9.8209 20C10.0475 20 10.2719 19.904 10.4358 19.7154L22.7888 5.42857C22.9307 5.26514 23 5.06171 23 4.85714C23 4.37829 22.6282 4 22.1761 4C21.9495 4 21.724 4.096 21.5612 4.28457L9.7571 17.936L2.375 11.0857C2.2166 10.9406 2.0208 10.8686 1.825 10.8686C1.3663 10.8686 1 11.2526 1 11.7246C1 11.96 1.0924 12.1954 1.275 12.3646Z" fill="white"/>
</svg>
