<svg width="24" height="24" viewBox="0 0 24 24" fill="none" xmlns="http://www.w3.org/2000/svg">
<path d="M18.5 21.5C20.581 21.5 22.739 21.016 24 20.098V20.75C24 21.993 21.44 23 18.5 23C15.561 23 13 21.993 13 20.75V20.098C14.26 21.016 16.42 21.5 18.5 21.5ZM18.5 16.5C20.581 16.5 22.739 16.016 24 15.098V15.75C24 16.992 21.44 18 18.5 18C15.561 18 13 16.993 13 15.75V15.098C14.26 16.016 16.42 16.5 18.5 16.5ZM18.5 19C20.581 19 22.739 18.516 24 17.599V18.25C24 19.493 21.44 20.5 18.5 20.5C15.561 20.5 13 19.493 13 18.25V17.599C14.26 18.516 16.42 19 18.5 19ZM18.5 14C20.581 14 22.739 13.516 24 12.599V13.25C24 14.493 21.44 15.5 18.5 15.5C15.561 15.5 13 14.493 13 13.25V12.599C14.26 13.516 16.42 14 18.5 14ZM18.5 1C15.561 1 13 2.007 13 3.25C13 4.493 15.561 5.5 18.5 5.5C21.44 5.5 24 4.493 24 3.25C24 2.007 21.44 1 18.5 1ZM18.674 4.28V4.5H18.32V4.292C17.96 4.289 17.577 4.236 17.262 4.14L17.424 3.797C17.693 3.86 18.03 3.923 18.335 3.923L18.564 3.909C18.969 3.856 19.05 3.608 18.601 3.49C18.273 3.4 17.266 3.324 17.266 2.815C17.266 2.531 17.633 2.278 18.32 2.222V2H18.674V2.211C18.932 2.216 19.218 2.241 19.537 2.301L19.409 2.643C19.166 2.592 18.895 2.544 18.63 2.544L18.551 2.545C18.02 2.565 17.978 2.832 18.344 2.944C18.946 3.113 19.738 3.236 19.738 3.684C19.737 4.042 19.261 4.233 18.674 4.28ZM18.5 11.5C20.581 11.5 22.739 11.016 24 10.098V10.75C24 11.993 21.44 13 18.5 13C15.561 13 13 11.993 13 10.75V10.098C14.26 11.016 16.42 11.5 18.5 11.5ZM18.5 6.5C20.581 6.5 22.739 6.016 24 5.098V5.75C24 6.993 21.44 8 18.5 8C15.561 8 13 6.993 13 5.75V5.098C14.26 6.016 16.42 6.5 18.5 6.5ZM18.5 9C20.581 9 22.739 8.516 24 7.599V8.25C24 9.493 21.44 10.5 18.5 10.5C15.561 10.5 13 9.493 13 8.25V7.599C14.26 8.516 16.42 9 18.5 9ZM5.5 11C2.561 11 0 12.007 0 13.25C0 14.493 2.561 15.5 5.5 15.5C8.44 15.5 11 14.493 11 13.25C11 12.007 8.44 11 5.5 11ZM5.674 14.28V14.5H5.321V14.292C4.96 14.289 4.577 14.236 4.263 14.14L4.425 13.797C4.694 13.86 5.032 13.923 5.336 13.923L5.565 13.909C5.97 13.856 6.052 13.608 5.603 13.49C5.274 13.4 4.268 13.324 4.268 12.815C4.268 12.531 4.636 12.278 5.322 12.222V12H5.675V12.211C5.933 12.216 6.219 12.241 6.538 12.301L6.41 12.643C6.167 12.592 5.897 12.544 5.631 12.544L5.551 12.545C5.021 12.565 4.979 12.832 5.345 12.944C5.947 13.113 6.738 13.236 6.738 13.684C6.737 14.042 6.261 14.233 5.674 14.28ZM5.5 21.5C7.581 21.5 9.739 21.016 11 20.098V20.75C11 21.993 8.44 23 5.5 23C2.561 23 0 21.993 0 20.75V20.098C1.26 21.016 3.42 21.5 5.5 21.5ZM5.5 16.5C7.581 16.5 9.739 16.016 11 15.098V15.75C11 16.993 8.44 18 5.5 18C2.561 18 0 16.993 0 15.75V15.098C1.26 16.016 3.42 16.5 5.5 16.5ZM5.5 19C7.581 19 9.739 18.516 11 17.599V18.25C11 19.493 8.44 20.5 5.5 20.5C2.561 20.5 0 19.493 0 18.25V17.599C1.26 18.516 3.42 19 5.5 19Z" fill="white"/>
</svg>
