<svg width="24" height="24" viewBox="0 0 24 24" fill="none" xmlns="http://www.w3.org/2000/svg">
<mask id="mask0_60_1200" style="mask-type:alpha" maskUnits="userSpaceOnUse" x="0" y="0" width="24" height="24">
<circle cx="12" cy="12" r="12" fill="#D9D9D9"/>
</mask>
<g mask="url(#mask0_60_1200)">
<path fill-rule="evenodd" clip-rule="evenodd" d="M12 24C18.6274 24 24 18.6274 24 12C24 5.37258 18.6274 0 12 0C5.37258 0 0 5.37258 0 12C0 18.6274 5.37258 24 12 24ZM20 17.3987C19.1593 18.0107 17.7207 18.3333 16.3333 18.3333C14.9467 18.3333 13.5067 18.0107 12.6667 17.3987V17.8333C12.6667 18.662 14.374 19.3333 16.3333 19.3333C18.2933 19.3333 20 18.662 20 17.8333V17.3987ZM20 14.0653C19.1593 14.6773 17.7207 15 16.3333 15C14.9467 15 13.5067 14.6773 12.6667 14.0653V14.5C12.6667 15.3287 14.374 16 16.3333 16C18.2933 16 20 15.328 20 14.5V14.0653ZM20 15.7327C19.1593 16.344 17.7207 16.6667 16.3333 16.6667C14.9467 16.6667 13.5067 16.344 12.6667 15.7327V16.1667C12.6667 16.9953 14.374 17.6667 16.3333 17.6667C18.2933 17.6667 20 16.9953 20 16.1667V15.7327ZM20 12.3993C19.1593 13.0107 17.7207 13.3333 16.3333 13.3333C14.9467 13.3333 13.5067 13.0107 12.6667 12.3993V12.8333C12.6667 13.662 14.374 14.3333 16.3333 14.3333C18.2933 14.3333 20 13.662 20 12.8333V12.3993ZM12.6667 6.16667C12.6667 5.338 14.374 4.66667 16.3333 4.66667C18.2933 4.66667 20 5.338 20 6.16667C20 6.99533 18.2933 7.66667 16.3333 7.66667C14.374 7.66667 12.6667 6.99533 12.6667 6.16667ZM16.4493 7V6.85333C16.8407 6.822 17.158 6.69467 17.1587 6.456C17.1587 6.20276 16.7791 6.10529 16.419 6.01282C16.3544 5.99623 16.2904 5.9798 16.2293 5.96267C15.9853 5.888 16.0133 5.71 16.3673 5.69667L16.42 5.696C16.5967 5.696 16.7773 5.728 16.9393 5.762L17.0247 5.534C16.812 5.494 16.6213 5.47733 16.4493 5.474V5.33333H16.2133V5.48133C15.7553 5.51867 15.5107 5.68733 15.5107 5.87667C15.5107 6.15244 15.9541 6.23756 16.2375 6.29198C16.3029 6.30452 16.3597 6.31543 16.4007 6.32667C16.7 6.40533 16.646 6.57067 16.376 6.606L16.2233 6.61533C16.02 6.61533 15.7953 6.57333 15.616 6.53133L15.508 6.76C15.718 6.824 15.9733 6.85933 16.2133 6.86133V7H16.4493ZM20 10.732C19.1593 11.344 17.7207 11.6667 16.3333 11.6667C14.9467 11.6667 13.5067 11.344 12.6667 10.732V11.1667C12.6667 11.9953 14.374 12.6667 16.3333 12.6667C18.2933 12.6667 20 11.9953 20 11.1667V10.732ZM20 7.39867C19.1593 8.01067 17.7207 8.33333 16.3333 8.33333C14.9467 8.33333 13.5067 8.01067 12.6667 7.39867V7.83333C12.6667 8.662 14.374 9.33333 16.3333 9.33333C18.2933 9.33333 20 8.662 20 7.83333V7.39867ZM20 9.066C19.1593 9.67733 17.7207 10 16.3333 10C14.9467 10 13.5067 9.67733 12.6667 9.066V9.5C12.6667 10.3287 14.374 11 16.3333 11C18.2933 11 20 10.3287 20 9.5V9.066ZM4 12.8333C4 12.0047 5.70733 11.3333 7.66667 11.3333C9.62667 11.3333 11.3333 12.0047 11.3333 12.8333C11.3333 13.662 9.62667 14.3333 7.66667 14.3333C5.70733 14.3333 4 13.662 4 12.8333ZM7.78267 13.6667V13.52C8.174 13.4887 8.49133 13.3613 8.492 13.1227C8.492 12.8693 8.11264 12.7719 7.75256 12.6794C7.68811 12.6628 7.62427 12.6464 7.56333 12.6293C7.31933 12.5547 7.34733 12.3767 7.70067 12.3633L7.754 12.3627C7.93133 12.3627 8.11133 12.3947 8.27333 12.4287L8.35867 12.2007C8.146 12.1607 7.95533 12.144 7.78333 12.1407V12H7.548V12.148C7.09067 12.1853 6.84533 12.354 6.84533 12.5433C6.84533 12.8193 7.28875 12.9043 7.5724 12.9587C7.63759 12.9712 7.69434 12.9821 7.73533 12.9933C8.03467 13.072 7.98 13.2373 7.71 13.2727L7.55733 13.282C7.35467 13.282 7.12933 13.24 6.95 13.198L6.842 13.4267C7.05133 13.4907 7.30667 13.526 7.54733 13.528V13.6667H7.78267ZM11.3333 17.3987C10.4927 18.0107 9.054 18.3333 7.66667 18.3333C6.28 18.3333 4.84 18.0107 4 17.3987V17.8333C4 18.662 5.70733 19.3333 7.66667 19.3333C9.62667 19.3333 11.3333 18.662 11.3333 17.8333V17.3987ZM11.3333 14.0653C10.4927 14.6773 9.054 15 7.66667 15C6.28 15 4.84 14.6773 4 14.0653V14.5C4 15.3287 5.70733 16 7.66667 16C9.62667 16 11.3333 15.3287 11.3333 14.5V14.0653ZM11.3333 15.7327C10.4927 16.344 9.054 16.6667 7.66667 16.6667C6.28 16.6667 4.84 16.344 4 15.7327V16.1667C4 16.9953 5.70733 17.6667 7.66667 17.6667C9.62667 17.6667 11.3333 16.9953 11.3333 16.1667V15.7327Z" fill="#D9D9D9"/>
</g>
</svg>
