<svg width="24" height="24" viewBox="0 0 24 24" fill="none" xmlns="http://www.w3.org/2000/svg">
<g clip-path="url(#clip0_28_812)">
<path fill-rule="evenodd" clip-rule="evenodd" d="M11.415 12.393L13.283 10.104C13.708 9.56 13.507 9.116 13.228 7.939C13.023 7.068 13.184 6.085 13.8 5.439C15.561 3.595 19.143 0 19.143 0L19.615 0.37L15.922 5.098L16.712 5.715L20.582 1.125L21.061 1.498L17.503 6.333L18.293 6.951L22.178 2.371L22.621 2.718L19.083 7.568L19.874 8.185L23.567 3.457L24 3.795C24 3.795 21.45 8.155 20.102 10.33C19.623 11.101 18.677 11.491 17.768 11.497C16.557 11.504 16.083 11.408 15.651 11.961L13.37 14.756C15.815 17.718 17.929 20.287 18.943 21.585C19.714 22.572 19.008 24.006 17.745 24.006C17.325 24.006 16.892 23.835 16.578 23.433L8.218 13.361C8.218 13.361 7.292 14.08 6.274 14.879C3.102 9.695 0.00700093 3.218 0.00700093 0.924C0.00700093 0.796 -0.026999 0 0.739001 0C0.984001 0 1.232 0.116 1.413 0.344C1.922 0.986 6.828 6.857 11.415 12.393ZM8.463 16.01L10.416 18.375L6.301 23.43C6.006 23.808 5.565 24.006 5.119 24.006C3.921 24.006 3.128 22.604 3.93 21.578L8.463 16.01Z" fill="#030405"/>
</g>
<defs>
<clipPath id="clip0_28_812">
<rect width="24" height="24" fill="white"/>
</clipPath>
</defs>
</svg>
